<svg xmlns="http://www.w3.org/2000/svg" width="16" height="16"><defs><clipPath id="a"><path data-name="Прямоугольник 5698" transform="translate(45 2066)" fill="#f5f5f5" d="M0 0h16v16H0z"/></clipPath></defs><g data-name="Группа масок 258" transform="translate(-45 -2066)" opacity=".5" clip-path="url(#a)"><g fill="#f5f5f5"><path data-name="Контур 15738" d="M48.313 2082h9.375a1.408 1.408 0 001.406-1.406v-9.906h-3.281a1.408 1.408 0 01-1.407-1.407V2066h-6.093a1.408 1.408 0 00-1.407 1.406v13.188a1.408 1.408 0 001.407 1.406zm1.875-9.406h5.625a.469.469 0 010 .938h-5.625a.469.469 0 010-.937zm0 1.875h5.625a.469.469 0 010 .938h-5.625a.469.469 0 010-.937zm0 1.875h5.625a.469.469 0 010 .938h-5.625a.469.469 0 010-.937zm0 1.875h3.75a.469.469 0 010 .938h-3.75a.469.469 0 010-.937z"/><path data-name="Контур 15739" d="M55.813 2069.75h3.007l-3.476-3.475v3.006a.469.469 0 00.469.469z"/></g></g></svg>