<svg xmlns="http://www.w3.org/2000/svg" width="16" height="16"><defs><clipPath id="a"><path data-name="Прямоугольник 5698" transform="translate(49 2066)" fill="#f5f5f5" d="M0 0h16v16H0z"/></clipPath></defs><g data-name="Группа масок 257" transform="translate(-49 -2066)" opacity=".5" clip-path="url(#a)"><g data-name="Сгруппировать 4182"><g data-name="Сгруппировать 4181"><path data-name="Контур 15734" d="M64.859 2069.179L60.007 2074l4.852 4.821a1.39 1.39 0 00.141-.6v-8.44a1.39 1.39 0 00-.141-.602z" fill="#f5f5f5"/></g></g><g data-name="Сгруппировать 4184"><g data-name="Сгруппировать 4183"><path data-name="Контур 15735" d="M63.594 2068.375H50.406a1.39 1.39 0 00-.6.141l6.2 6.171a1.407 1.407 0 001.988 0l6.2-6.171a1.39 1.39 0 00-.6-.141z" fill="#f5f5f5"/></g></g><g data-name="Сгруппировать 4186"><g data-name="Сгруппировать 4185"><path data-name="Контур 15736" d="M49.141 2069.179a1.39 1.39 0 00-.141.6v8.438a1.39 1.39 0 00.141.6l4.852-4.817z" fill="#f5f5f5"/></g></g><g data-name="Сгруппировать 4188"><g data-name="Сгруппировать 4187"><path data-name="Контур 15737" d="M59.344 2074.663l-.687.687a2.346 2.346 0 01-3.314 0l-.687-.687-4.856 4.821a1.39 1.39 0 00.6.141h13.194a1.39 1.39 0 00.6-.141z" fill="#f5f5f5"/></g></g></g></svg>