<?xml version="1.0" standalone="no"?>
<!DOCTYPE svg PUBLIC "-//W3C//DTD SVG 20010904//EN"
 "http://www.w3.org/TR/2001/REC-SVG-20010904/DTD/svg10.dtd">
<svg version="1.0" xmlns="http://www.w3.org/2000/svg"
 width="209.000000pt" height="154.000000pt" viewBox="0 0 209.000000 154.000000"
 preserveAspectRatio="xMidYMid meet">

<g transform="translate(0.000000,154.000000) scale(0.100000,-0.100000)"
fill="#000000" stroke="none">
<path d="M1242 902 c-106 -185 -196 -343 -201 -351 -7 -10 -28 22 -76 119
l-67 133 -100 -100 -100 -100 118 -277 c66 -151 122 -276 125 -276 4 0 65 66
137 147 170 194 361 410 493 559 59 65 119 133 133 151 l27 32 -32 116 c-18
63 -36 115 -39 115 -4 0 -24 -27 -45 -61 -21 -33 -49 -69 -63 -80 -14 -10 -21
-19 -17 -19 4 0 -4 -11 -19 -25 -26 -24 -65 -34 -67 -17 -1 4 -3 21 -6 37 -3
17 -5 76 -5 133 1 56 0 102 -1 102 -1 0 -89 -152 -195 -338z"/>
</g>
</svg>
