<?xml version="1.0" standalone="no"?>
<!DOCTYPE svg PUBLIC "-//W3C//DTD SVG 20010904//EN"
 "http://www.w3.org/TR/2001/REC-SVG-20010904/DTD/svg10.dtd">
<svg version="1.0" xmlns="http://www.w3.org/2000/svg"
 width="500.000000pt" height="500.000000pt" viewBox="0 0 500.000000 500.000000"
 preserveAspectRatio="xMidYMid meet">

<g transform="translate(0.000000,500.000000) scale(0.100000,-0.100000)"
fill="#000000" stroke="none">
<path d="M2290 2192 c0 -4 30 -80 67 -169 89 -214 87 -214 176 -3 37 88 67
164 67 168 0 5 -6 9 -14 9 -9 0 -38 -58 -77 -150 -49 -116 -65 -146 -71 -131
-4 10 -32 77 -62 148 -35 84 -59 130 -70 132 -9 1 -16 -1 -16 -4z"/>
</g>
</svg>
