<svg xmlns="http://www.w3.org/2000/svg" width="20" height="20"><g data-name="Группа масок 6"><path data-name="Контур 7388" d="M6.861 10.339A4.061 4.061 0 102.8 6.275a4.061 4.061 0 004.061 4.064zm1.923-2.456a1.932 1.932 0 01-1.924 1.07 1.932 1.932 0 01-1.924-1.07h3.848zm11.66 4.142v1.065a.483.483 0 01-.261.406 13.221 13.221 0 01-5.2.758h-.434a4.753 4.753 0 00-4.112-4.422 3.116 3.116 0 011.851-.9.259.259 0 01.155.043 4.312 4.312 0 005.078 0 .258.258 0 01.155-.043 3.13 3.13 0 012.768 3.093zm-6.721 2.515v1.335a.606.606 0 01-.327.51c-.7.313-2.619.952-6.534.952s-5.832-.64-6.534-.952a.606.606 0 01-.328-.51V14.54a3.933 3.933 0 013.476-3.893.325.325 0 01.2.054 5.418 5.418 0 006.38 0 .325.325 0 01.2-.054 3.933 3.933 0 013.467 3.893zm1.26-12.322a3.232 3.232 0 103.232 3.232 3.232 3.232 0 00-3.232-3.232zm0 5.331a1.586 1.586 0 01-1.583-.874h3.159a1.586 1.586 0 01-1.576.873z" fill="#fff" opacity=".1"/></g></svg>