<svg xmlns="http://www.w3.org/2000/svg" width="25" height="25"><defs><clipPath id="a"><path data-name="Прямоугольник 5695" transform="translate(64.19 20)" fill="#df005b" d="M0 0h25v25H0z"/></clipPath><clipPath id="b"><path data-name="Прямоугольник 5696" fill="#fff" d="M0 0h25v19.366H0z"/></clipPath></defs><g data-name="Группа масок 255" transform="translate(-64.19 -20)" clip-path="url(#a)"><g transform="translate(64.19 22.817)" clip-path="url(#b)"><path data-name="Контур 15733" d="M21.164 1.725A20.616 20.616 0 0016.075.146a.077.077 0 00-.082.039 14.361 14.361 0 00-.634 1.3 19.032 19.032 0 00-5.715 0A13.171 13.171 0 009 .185a.08.08 0 00-.081-.039A20.559 20.559 0 003.83 1.725a.073.073 0 00-.033.029A21.1 21.1 0 00.1 15.983a.086.086 0 00.033.059A20.731 20.731 0 006.378 19.2a.081.081 0 00.088-.029 14.817 14.817 0 001.277-2.077.079.079 0 00-.043-.11 13.652 13.652 0 01-1.95-.93.08.08 0 01-.008-.133c.131-.1.262-.2.387-.3a.077.077 0 01.081-.021 14.784 14.784 0 0012.564 0 .077.077 0 01.082.01c.125.1.256.206.388.3a.08.08 0 01-.007.133 12.811 12.811 0 01-1.951.929.08.08 0 00-.042.111 16.636 16.636 0 001.276 2.076.079.079 0 00.088.03 20.663 20.663 0 006.252-3.156.08.08 0 00.033-.058 20.961 20.961 0 00-3.7-14.23.064.064 0 00-.029-.02zM8.354 13.143a2.4 2.4 0 01-2.247-2.52A2.39 2.39 0 018.354 8.1a2.377 2.377 0 012.247 2.52 2.39 2.39 0 01-2.247 2.523zm8.307 0a2.4 2.4 0 01-2.247-2.52A2.39 2.39 0 0116.661 8.1a2.377 2.377 0 012.247 2.52 2.383 2.383 0 01-2.247 2.523z" fill="#5865f2"/></g></g></svg>