<svg xmlns="http://www.w3.org/2000/svg" width="25" height="25"><defs><linearGradient id="b" x1=".5" x2=".5" y2=".993" gradientUnits="objectBoundingBox"><stop offset="0" stop-color="#2aabee"/><stop offset="1" stop-color="#229ed9"/></linearGradient><clipPath id="a"><path data-name="Прямоугольник 5695" transform="translate(64.19 20)" fill="#df005b" d="M0 0h25v25H0z"/></clipPath></defs><g data-name="Группа масок 254" transform="translate(-64.19 -20)" clip-path="url(#a)"><g transform="translate(64.19 20)"><circle cx="12.5" cy="12.5" r="12.5" fill="url(#b)"/><path d="M5.658 12.368q5.466-2.381 7.29-3.14c3.471-1.444 4.193-1.695 4.663-1.7a.822.822 0 01.484.145.527.527 0 01.178.339 2.2 2.2 0 01.021.492c-.188 1.977-1 6.773-1.416 8.987-.175.937-.52 1.251-.854 1.282-.726.067-1.277-.48-1.98-.941-1.1-.721-1.722-1.17-2.79-1.874-1.234-.813-.434-1.26.269-1.991.184-.191 3.382-3.1 3.444-3.364a.255.255 0 00-.058-.221.288.288 0 00-.259-.025q-.166.038-5.273 3.485a2.373 2.373 0 01-1.356.5 8.921 8.921 0 01-1.943-.46c-.783-.254-1.4-.389-1.351-.821q.044-.34.931-.693z" fill="#fff" fill-rule="evenodd"/></g></g></svg>