<svg xmlns="http://www.w3.org/2000/svg" width="25" height="25"><defs><clipPath id="a"><path data-name="Прямоугольник 5695" fill="#07f" d="M0 0h25v25H0z"/></clipPath></defs><g data-name="Группа масок 252" clip-path="url(#a)"><path data-name="Вычитание 8" d="M13 25h-1c-5.649 0-8.485 0-10.243-1.758S0 18.65 0 13v-1C0 6.35 0 3.514 1.758 1.758S6.351 0 12 0h1c5.649 0 8.485 0 10.243 1.758S25 6.35 25 12v1c0 5.65 0 8.485-1.757 10.242S18.65 25 13 25zm.625-10.708a5.133 5.133 0 014.312 3.719H20.9a8.271 8.271 0 00-4.281-5.219A7.968 7.968 0 0020.271 7.6h-2.688A6.765 6.765 0 0116 10.369a4.048 4.048 0 01-2.378 1.35V7.6h-2.684v7.209a4.311 4.311 0 01-2.522-1.972A9.937 9.937 0 017.073 7.6H4.219a11.947 11.947 0 002.456 7.641A7.591 7.591 0 009.5 17.3a9.736 9.736 0 003.8.712h.323v-3.719z" fill="#07f"/></g></svg>