<svg xmlns="http://www.w3.org/2000/svg" width="25" height="25"><defs><clipPath id="a"><path data-name="Прямоугольник 5695" transform="translate(64.33 20)" fill="#df005b" d="M0 0h25v25H0z"/></clipPath></defs><g data-name="Группа масок 256" transform="translate(-64.33 -20)" clip-path="url(#a)"><path d="M88.807 26.444a3.142 3.142 0 00-2.214-2.225c-1.949-.526-9.767-.526-9.767-.526s-7.818 0-9.767.526a3.142 3.142 0 00-2.207 2.225 32.941 32.941 0 00-.523 6.057 32.941 32.941 0 00.523 6.057 3.142 3.142 0 002.21 2.224c1.949.526 9.767.526 9.767.526s7.818 0 9.767-.526a3.142 3.142 0 002.21-2.224 32.941 32.941 0 00.523-6.057 32.941 32.941 0 00-.522-6.057z" fill="red"/><path d="M74.273 36.218l6.534-3.717-6.534-3.718z" fill="#fff"/></g></svg>