<svg height="512" width="512" xmlns="http://www.w3.org/2000/svg"><path d="M329.58 18.381H182.438c-90.46 0-164.056 73.587-164.056 164.038v147.159c0 90.451 73.596 164.039 164.056 164.039H329.58c90.451 0 164.039-73.588 164.039-164.039V182.419c0-90.451-73.588-164.038-164.039-164.038z" fill="#efefef"/><path d="M182.438 493.617H329.58c59.453 0 111.619-31.795 140.393-79.272H42.031c28.778 47.477 80.948 79.272 140.407 79.272zm311.181-164.039v-73.706H18.383v73.706c0 1.853.042 3.694.104 5.532h475.029c.061-1.838.103-3.679.103-5.532zM256 176.639h237.506c-1.003-28.82-9.468-55.776-23.531-78.983H256z" fill="#d90028"/><path d="M256 18.381h-73.562c-90.46 0-164.056 73.587-164.056 164.038v73.343H256z" fill="#0152b7"/><path d="M62.385 220.992l9.014-6.264 8.585 6.231a2.714 2.714 0 004.185-3.005l-3.192-10.213 8.715-6.666a2.713 2.713 0 00-1.649-4.869H77.469l-3.562-9.786s-.407-1.786-2.582-1.786a2.696 2.696 0 00-2.539 1.846l-3.286 9.727H54.823a2.712 2.712 0 00-1.659 4.861l8.412 6.504-3.323 10.363a2.707 2.707 0 00.969 3.01s1.336 1.317 3.163.047zm69.095 0l9.014-6.264 8.584 6.231c.948.689 2.23.691 3.18.009a2.717 2.717 0 001.006-3.014l-3.19-10.213 8.714-6.666c.922-.706 1.294-1.922.922-3.024a2.715 2.715 0 00-2.572-1.845h-10.573l-3.561-9.786s-.69-1.863-2.582-1.786c-1.149.047-2.169.754-2.539 1.846l-3.286 9.727H123.92a2.71 2.71 0 00-2.567 1.839 2.707 2.707 0 00.907 3.022l8.415 6.504-3.326 10.363a2.714 2.714 0 00.97 3.01c-.002 0 1.487 1.211 3.161.047zm78.068-36.357c1.142.029 2.163.712 2.552 1.786l3.56 9.786h10.573a2.714 2.714 0 011.65 4.869l-8.714 6.666 3.192 10.213a2.716 2.716 0 01-4.188 3.005l-8.584-6.231-9.014 6.264c-1.599 1.111-3.163-.047-3.163-.047a2.715 2.715 0 01-.971-3.01l3.328-10.363-8.415-6.504a2.715 2.715 0 011.66-4.861h10.677l3.287-9.727c.001-.001.493-1.899 2.57-1.846zm-138.189-69.45c1.135.08 2.159.711 2.548 1.786l3.562 9.785h10.572a2.715 2.715 0 011.649 4.87l-8.715 6.665 3.192 10.211a2.714 2.714 0 01-4.185 3.007l-8.585-6.23-9.014 6.263c-1.619 1.125-3.163-.048-3.163-.048a2.706 2.706 0 01-.969-3.01l3.323-10.361-8.412-6.504a2.711 2.711 0 01-.909-3.023 2.711 2.711 0 012.568-1.839H65.5l3.286-9.727c0-.001.6-1.985 2.573-1.845zm69.062 0c-1.149 0-2.169.753-2.539 1.845l-3.286 9.727h-10.677c-1.16 0-2.195.738-2.567 1.839a2.708 2.708 0 00.907 3.023l8.415 6.504-3.326 10.361a2.714 2.714 0 00.97 3.01s1.42 1.259 3.163.048l9.014-6.263 8.584 6.23c.948.688 2.23.691 3.18.009a2.72 2.72 0 001.006-3.016l-3.19-10.211 8.714-6.665c.922-.705 1.294-1.925.922-3.026a2.716 2.716 0 00-2.572-1.844h-10.573l-3.561-9.785c-.002 0-.588-1.786-2.584-1.786zm60.155 36.356l9.014-6.263 8.584 6.23a2.717 2.717 0 003.18.009 2.72 2.72 0 001.008-3.016l-3.192-10.211 8.714-6.665a2.718 2.718 0 00.923-3.026 2.72 2.72 0 00-2.573-1.844h-10.573l-3.56-9.785c-.389-1.075-1.41-1.818-2.552-1.786-2.14.06-2.568 1.845-2.568 1.845l-3.287 9.727h-10.677a2.714 2.714 0 00-1.66 4.862l8.415 6.504-3.328 10.361a2.714 2.714 0 00.971 3.01 2.557 2.557 0 003.161.048zM59.22 81.63c-.959-.659-1.33-1.91-.97-3.01l1.66-5.17c5.39-6.05 11.22-11.7 17.439-16.9l.12.34h10.57c1.16 0 2.2.74 2.57 1.841.37 1.1 0 2.319-.92 3.02l-8.71 6.67 3.189 10.21c.35 1.12-.06 2.33-1.01 3.021-.95.68-2.23.68-3.18-.011L71.4 75.41l-9.021 6.26c.001 0-1.273 1.256-3.159-.04zm81.201-36.317c-1.149.035-2.169.754-2.539 1.846l-3.286 9.727-10.677-.001a2.713 2.713 0 00-2.567 1.838 2.705 2.705 0 00.907 3.023l8.415 6.506-3.326 10.364a2.717 2.717 0 00.97 3.01s1.568 1.151 3.163.044l9.014-6.261 8.584 6.229a2.72 2.72 0 003.18.011 2.722 2.722 0 001.006-3.016l-3.19-10.211 8.714-6.667c.922-.705 1.294-1.922.922-3.024a2.717 2.717 0 00-2.572-1.845h-10.573l-3.561-9.785c-.002 0-.538-1.85-2.584-1.788zm56.992 36.313c-.951-.672-1.324-1.905-.971-3.01l3.328-10.364-8.415-6.506a2.71 2.71 0 01-.909-3.023 2.719 2.719 0 012.569-1.838l10.677.001 3.287-9.727c.368-1.092 1.388-1.784 2.537-1.846 1.934-.104 2.583 1.787 2.583 1.787l3.56 9.785h10.573a2.714 2.714 0 011.65 4.869l-8.714 6.667 3.192 10.211a2.72 2.72 0 01-1.008 3.016 2.717 2.717 0 01-3.18-.011l-8.584-6.229-9.014 6.261c.002.001-1.48 1.144-3.161-.043z" fill="#efefef"/><path d="M493.578 182.494v147.009c0 90.567-73.506 164.072-164.072 164.072h-147.01c-19.266 0-37.681-3.383-54.916-9.464l148.189-12.672c153.09-21.122 159.006-124.535 159.006-124.535l-.677-179.617S430.889 61.68 303.648 18.422h25.857c90.567 0 164.073 73.504 164.073 164.072z" fill="#160204" opacity=".13"/><path d="M18.424 329.503V182.494c0-90.568 73.505-164.072 164.072-164.072h56.945C194.83 27.382 74.355 62.018 56.104 172.865l-.842 180.796s4.39 73.679 37.005 112.877c-44.438-29.397-73.843-79.751-73.843-137.035z" fill="#fff" opacity=".22"/></svg>